<mxfile host="Electron" modified="2025-03-21T08:31:38.796Z" agent="Mozilla/5.0 (Macintosh; Intel Mac OS X 10_15_7) AppleWebKit/537.36 (KHTML, like Gecko) draw.io/22.1.18 Chrome/120.0.6099.199 Electron/28.1.2 Safari/537.36" etag="ScQZNy-oGQQYjoU7zB7S" version="22.1.18" type="device" pages="2">
  <diagram name="topology-grid" id="JlNEI8qelJMgjYbR65dI">
    <mxGraphModel dx="795" dy="488" grid="1" gridSize="10" guides="1" tooltips="1" connect="1" arrows="1" fold="1" page="1" pageScale="1" pageWidth="850" pageHeight="1100" math="0" shadow="0">
      <root>
        <mxCell id="0" />
        <mxCell id="1" parent="0" />
        <mxCell id="Ofg8tvn4ISnts4zP7dnw-30" style="rounded=0;orthogonalLoop=1;jettySize=auto;html=1;exitX=1;exitY=0.5;exitDx=0;exitDy=0;entryX=0;entryY=0;entryDx=0;entryDy=0;endArrow=none;endFill=0;fillColor=#d5e8d4;strokeColor=#82b366;" edge="1" parent="1" source="Ofg8tvn4ISnts4zP7dnw-1" target="Ofg8tvn4ISnts4zP7dnw-3">
          <mxGeometry relative="1" as="geometry" />
        </mxCell>
        <mxCell id="Ofg8tvn4ISnts4zP7dnw-31" style="rounded=0;orthogonalLoop=1;jettySize=auto;html=1;exitX=0;exitY=0.5;exitDx=0;exitDy=0;entryX=1;entryY=0;entryDx=0;entryDy=0;endArrow=none;endFill=0;fillColor=#d5e8d4;strokeColor=#82b366;" edge="1" parent="1" source="Ofg8tvn4ISnts4zP7dnw-1" target="Ofg8tvn4ISnts4zP7dnw-2">
          <mxGeometry relative="1" as="geometry" />
        </mxCell>
        <mxCell id="Ofg8tvn4ISnts4zP7dnw-1" value="" style="rounded=0;whiteSpace=wrap;html=1;strokeWidth=2;fillColor=#d5e8d4;strokeColor=#82b366;" vertex="1" parent="1">
          <mxGeometry x="310" y="160" width="20" height="20" as="geometry" />
        </mxCell>
        <mxCell id="Ofg8tvn4ISnts4zP7dnw-26" style="edgeStyle=orthogonalEdgeStyle;rounded=0;orthogonalLoop=1;jettySize=auto;html=1;exitX=1;exitY=0.5;exitDx=0;exitDy=0;endArrow=none;endFill=0;fillColor=#dae8fc;strokeColor=#6c8ebf;" edge="1" parent="1" source="Ofg8tvn4ISnts4zP7dnw-2" target="Ofg8tvn4ISnts4zP7dnw-3">
          <mxGeometry relative="1" as="geometry" />
        </mxCell>
        <mxCell id="Ofg8tvn4ISnts4zP7dnw-86" style="edgeStyle=orthogonalEdgeStyle;rounded=0;orthogonalLoop=1;jettySize=auto;html=1;exitX=0;exitY=1;exitDx=0;exitDy=0;entryX=0;entryY=0;entryDx=0;entryDy=0;endArrow=none;endFill=0;fillColor=#dae8fc;strokeColor=#6c8ebf;" edge="1" parent="1" source="Ofg8tvn4ISnts4zP7dnw-2" target="Ofg8tvn4ISnts4zP7dnw-43">
          <mxGeometry relative="1" as="geometry" />
        </mxCell>
        <mxCell id="Ofg8tvn4ISnts4zP7dnw-2" value="" style="ellipse;whiteSpace=wrap;html=1;aspect=fixed;strokeWidth=2;fillColor=#dae8fc;strokeColor=#6c8ebf;" vertex="1" parent="1">
          <mxGeometry x="240" y="200" width="40" height="40" as="geometry" />
        </mxCell>
        <mxCell id="Ofg8tvn4ISnts4zP7dnw-27" style="edgeStyle=orthogonalEdgeStyle;rounded=0;orthogonalLoop=1;jettySize=auto;html=1;exitX=1;exitY=0.5;exitDx=0;exitDy=0;endArrow=none;endFill=0;fillColor=#dae8fc;strokeColor=#6c8ebf;" edge="1" parent="1" source="Ofg8tvn4ISnts4zP7dnw-3" target="Ofg8tvn4ISnts4zP7dnw-4">
          <mxGeometry relative="1" as="geometry" />
        </mxCell>
        <mxCell id="Ofg8tvn4ISnts4zP7dnw-87" style="edgeStyle=orthogonalEdgeStyle;rounded=0;orthogonalLoop=1;jettySize=auto;html=1;exitX=0.5;exitY=1;exitDx=0;exitDy=0;endArrow=none;endFill=0;fillColor=#dae8fc;strokeColor=#6c8ebf;" edge="1" parent="1" source="Ofg8tvn4ISnts4zP7dnw-3" target="Ofg8tvn4ISnts4zP7dnw-45">
          <mxGeometry relative="1" as="geometry" />
        </mxCell>
        <mxCell id="Ofg8tvn4ISnts4zP7dnw-3" value="" style="ellipse;whiteSpace=wrap;html=1;aspect=fixed;strokeWidth=2;fillColor=#dae8fc;strokeColor=#6c8ebf;" vertex="1" parent="1">
          <mxGeometry x="360" y="200" width="40" height="40" as="geometry" />
        </mxCell>
        <mxCell id="Ofg8tvn4ISnts4zP7dnw-28" style="edgeStyle=orthogonalEdgeStyle;rounded=0;orthogonalLoop=1;jettySize=auto;html=1;exitX=1;exitY=0.5;exitDx=0;exitDy=0;endArrow=none;endFill=0;fillColor=#dae8fc;strokeColor=#6c8ebf;" edge="1" parent="1" source="Ofg8tvn4ISnts4zP7dnw-4" target="Ofg8tvn4ISnts4zP7dnw-5">
          <mxGeometry relative="1" as="geometry" />
        </mxCell>
        <mxCell id="Ofg8tvn4ISnts4zP7dnw-88" style="edgeStyle=orthogonalEdgeStyle;rounded=0;orthogonalLoop=1;jettySize=auto;html=1;exitX=0.5;exitY=1;exitDx=0;exitDy=0;entryX=0.5;entryY=0;entryDx=0;entryDy=0;endArrow=none;endFill=0;fillColor=#dae8fc;strokeColor=#6c8ebf;" edge="1" parent="1" source="Ofg8tvn4ISnts4zP7dnw-4" target="Ofg8tvn4ISnts4zP7dnw-47">
          <mxGeometry relative="1" as="geometry" />
        </mxCell>
        <mxCell id="Ofg8tvn4ISnts4zP7dnw-4" value="" style="ellipse;whiteSpace=wrap;html=1;aspect=fixed;strokeWidth=2;fillColor=#dae8fc;strokeColor=#6c8ebf;" vertex="1" parent="1">
          <mxGeometry x="480" y="200" width="40" height="40" as="geometry" />
        </mxCell>
        <mxCell id="Ofg8tvn4ISnts4zP7dnw-38" style="edgeStyle=orthogonalEdgeStyle;rounded=0;orthogonalLoop=1;jettySize=auto;html=1;exitX=1;exitY=0.5;exitDx=0;exitDy=0;entryX=0;entryY=0.5;entryDx=0;entryDy=0;endArrow=none;endFill=0;fillColor=#dae8fc;strokeColor=#6c8ebf;" edge="1" parent="1" source="Ofg8tvn4ISnts4zP7dnw-5" target="Ofg8tvn4ISnts4zP7dnw-2">
          <mxGeometry relative="1" as="geometry">
            <Array as="points">
              <mxPoint x="660" y="220" />
              <mxPoint x="660" y="260" />
              <mxPoint x="220" y="260" />
              <mxPoint x="220" y="220" />
            </Array>
          </mxGeometry>
        </mxCell>
        <mxCell id="Ofg8tvn4ISnts4zP7dnw-89" style="edgeStyle=orthogonalEdgeStyle;rounded=0;orthogonalLoop=1;jettySize=auto;html=1;exitX=0.5;exitY=1;exitDx=0;exitDy=0;entryX=0.5;entryY=0;entryDx=0;entryDy=0;endArrow=none;endFill=0;fillColor=#dae8fc;strokeColor=#6c8ebf;" edge="1" parent="1" source="Ofg8tvn4ISnts4zP7dnw-5" target="Ofg8tvn4ISnts4zP7dnw-49">
          <mxGeometry relative="1" as="geometry" />
        </mxCell>
        <mxCell id="Ofg8tvn4ISnts4zP7dnw-5" value="" style="ellipse;whiteSpace=wrap;html=1;aspect=fixed;strokeWidth=2;fillColor=#dae8fc;strokeColor=#6c8ebf;" vertex="1" parent="1">
          <mxGeometry x="600" y="200" width="40" height="40" as="geometry" />
        </mxCell>
        <mxCell id="Ofg8tvn4ISnts4zP7dnw-32" style="rounded=0;orthogonalLoop=1;jettySize=auto;html=1;exitX=1;exitY=0.5;exitDx=0;exitDy=0;entryX=0;entryY=0;entryDx=0;entryDy=0;endArrow=none;endFill=0;fillColor=#d5e8d4;strokeColor=#82b366;" edge="1" parent="1" source="Ofg8tvn4ISnts4zP7dnw-15" target="Ofg8tvn4ISnts4zP7dnw-4">
          <mxGeometry relative="1" as="geometry" />
        </mxCell>
        <mxCell id="Ofg8tvn4ISnts4zP7dnw-15" value="" style="rounded=0;whiteSpace=wrap;html=1;strokeWidth=2;fillColor=#d5e8d4;strokeColor=#82b366;" vertex="1" parent="1">
          <mxGeometry x="430" y="160" width="20" height="20" as="geometry" />
        </mxCell>
        <mxCell id="Ofg8tvn4ISnts4zP7dnw-34" style="rounded=0;orthogonalLoop=1;jettySize=auto;html=1;exitX=0;exitY=0.5;exitDx=0;exitDy=0;entryX=1;entryY=0;entryDx=0;entryDy=0;endArrow=none;endFill=0;fillColor=#d5e8d4;strokeColor=#82b366;" edge="1" parent="1" source="Ofg8tvn4ISnts4zP7dnw-16" target="Ofg8tvn4ISnts4zP7dnw-4">
          <mxGeometry relative="1" as="geometry" />
        </mxCell>
        <mxCell id="Ofg8tvn4ISnts4zP7dnw-35" style="rounded=0;orthogonalLoop=1;jettySize=auto;html=1;exitX=1;exitY=0.5;exitDx=0;exitDy=0;entryX=0;entryY=0;entryDx=0;entryDy=0;endArrow=none;endFill=0;fillColor=#d5e8d4;strokeColor=#82b366;" edge="1" parent="1" source="Ofg8tvn4ISnts4zP7dnw-16" target="Ofg8tvn4ISnts4zP7dnw-5">
          <mxGeometry relative="1" as="geometry" />
        </mxCell>
        <mxCell id="Ofg8tvn4ISnts4zP7dnw-16" value="" style="rounded=0;whiteSpace=wrap;html=1;strokeWidth=2;fillColor=#d5e8d4;strokeColor=#82b366;" vertex="1" parent="1">
          <mxGeometry x="550" y="160" width="20" height="20" as="geometry" />
        </mxCell>
        <mxCell id="Ofg8tvn4ISnts4zP7dnw-36" style="rounded=0;orthogonalLoop=1;jettySize=auto;html=1;exitX=0;exitY=0.5;exitDx=0;exitDy=0;entryX=1;entryY=0;entryDx=0;entryDy=0;endArrow=none;endFill=0;fillColor=#d5e8d4;strokeColor=#82b366;" edge="1" parent="1" source="Ofg8tvn4ISnts4zP7dnw-17" target="Ofg8tvn4ISnts4zP7dnw-5">
          <mxGeometry relative="1" as="geometry" />
        </mxCell>
        <mxCell id="Ofg8tvn4ISnts4zP7dnw-37" style="edgeStyle=orthogonalEdgeStyle;rounded=0;orthogonalLoop=1;jettySize=auto;html=1;exitX=0.5;exitY=0;exitDx=0;exitDy=0;entryX=0.5;entryY=0;entryDx=0;entryDy=0;endArrow=none;endFill=0;fillColor=#d5e8d4;strokeColor=#82b366;" edge="1" parent="1" source="Ofg8tvn4ISnts4zP7dnw-17" target="Ofg8tvn4ISnts4zP7dnw-2">
          <mxGeometry relative="1" as="geometry" />
        </mxCell>
        <mxCell id="Ofg8tvn4ISnts4zP7dnw-17" value="" style="rounded=0;whiteSpace=wrap;html=1;strokeWidth=2;fillColor=#d5e8d4;strokeColor=#82b366;" vertex="1" parent="1">
          <mxGeometry x="670" y="160" width="20" height="20" as="geometry" />
        </mxCell>
        <mxCell id="Ofg8tvn4ISnts4zP7dnw-33" style="rounded=0;orthogonalLoop=1;jettySize=auto;html=1;exitX=0;exitY=0.5;exitDx=0;exitDy=0;entryX=1;entryY=0;entryDx=0;entryDy=0;endArrow=none;endFill=0;fillColor=#d5e8d4;strokeColor=#82b366;" edge="1" parent="1" source="Ofg8tvn4ISnts4zP7dnw-15" target="Ofg8tvn4ISnts4zP7dnw-3">
          <mxGeometry relative="1" as="geometry" />
        </mxCell>
        <mxCell id="Ofg8tvn4ISnts4zP7dnw-39" style="rounded=0;orthogonalLoop=1;jettySize=auto;html=1;exitX=1;exitY=0.75;exitDx=0;exitDy=0;entryX=0;entryY=0;entryDx=0;entryDy=0;endArrow=none;endFill=0;fillColor=#d5e8d4;strokeColor=#82b366;" edge="1" source="Ofg8tvn4ISnts4zP7dnw-41" target="Ofg8tvn4ISnts4zP7dnw-45" parent="1">
          <mxGeometry relative="1" as="geometry" />
        </mxCell>
        <mxCell id="Ofg8tvn4ISnts4zP7dnw-40" style="rounded=0;orthogonalLoop=1;jettySize=auto;html=1;exitX=0;exitY=0.75;exitDx=0;exitDy=0;entryX=1;entryY=0;entryDx=0;entryDy=0;endArrow=none;endFill=0;fillColor=#d5e8d4;strokeColor=#82b366;" edge="1" source="Ofg8tvn4ISnts4zP7dnw-41" target="Ofg8tvn4ISnts4zP7dnw-43" parent="1">
          <mxGeometry relative="1" as="geometry" />
        </mxCell>
        <mxCell id="Ofg8tvn4ISnts4zP7dnw-41" value="" style="rounded=0;whiteSpace=wrap;html=1;strokeWidth=2;fillColor=#d5e8d4;strokeColor=#82b366;" vertex="1" parent="1">
          <mxGeometry x="310" y="270" width="20" height="20" as="geometry" />
        </mxCell>
        <mxCell id="Ofg8tvn4ISnts4zP7dnw-42" style="edgeStyle=orthogonalEdgeStyle;rounded=0;orthogonalLoop=1;jettySize=auto;html=1;exitX=1;exitY=0.5;exitDx=0;exitDy=0;endArrow=none;endFill=0;fillColor=#dae8fc;strokeColor=#6c8ebf;" edge="1" parent="1">
          <mxGeometry relative="1" as="geometry">
            <mxPoint x="280" y="331" as="sourcePoint" />
            <mxPoint x="360" y="331" as="targetPoint" />
          </mxGeometry>
        </mxCell>
        <mxCell id="Ofg8tvn4ISnts4zP7dnw-93" style="edgeStyle=orthogonalEdgeStyle;rounded=0;orthogonalLoop=1;jettySize=auto;html=1;exitX=0;exitY=1;exitDx=0;exitDy=0;entryX=0;entryY=0;entryDx=0;entryDy=0;endArrow=none;endFill=0;fillColor=#dae8fc;strokeColor=#6c8ebf;" edge="1" parent="1">
          <mxGeometry relative="1" as="geometry">
            <mxPoint x="245.85786437626894" y="345.14213562373095" as="sourcePoint" />
            <mxPoint x="245.85786437626894" y="426.85786437626905" as="targetPoint" />
          </mxGeometry>
        </mxCell>
        <mxCell id="Ofg8tvn4ISnts4zP7dnw-43" value="" style="ellipse;whiteSpace=wrap;html=1;aspect=fixed;strokeWidth=2;fillColor=#dae8fc;strokeColor=#6c8ebf;" vertex="1" parent="1">
          <mxGeometry x="240" y="310" width="40" height="40" as="geometry" />
        </mxCell>
        <mxCell id="Ofg8tvn4ISnts4zP7dnw-44" style="edgeStyle=orthogonalEdgeStyle;rounded=0;orthogonalLoop=1;jettySize=auto;html=1;exitX=1;exitY=0.5;exitDx=0;exitDy=0;endArrow=none;endFill=0;fillColor=#dae8fc;strokeColor=#6c8ebf;" edge="1" parent="1">
          <mxGeometry relative="1" as="geometry">
            <mxPoint x="400" y="331" as="sourcePoint" />
            <mxPoint x="480" y="331" as="targetPoint" />
          </mxGeometry>
        </mxCell>
        <mxCell id="Ofg8tvn4ISnts4zP7dnw-92" style="edgeStyle=orthogonalEdgeStyle;rounded=0;orthogonalLoop=1;jettySize=auto;html=1;exitX=0.5;exitY=1;exitDx=0;exitDy=0;entryX=0.5;entryY=0;entryDx=0;entryDy=0;endArrow=none;endFill=0;fillColor=#dae8fc;strokeColor=#6c8ebf;" edge="1" parent="1">
          <mxGeometry relative="1" as="geometry">
            <mxPoint x="380" y="351" as="sourcePoint" />
            <mxPoint x="380" y="421" as="targetPoint" />
          </mxGeometry>
        </mxCell>
        <mxCell id="Ofg8tvn4ISnts4zP7dnw-45" value="" style="ellipse;whiteSpace=wrap;html=1;aspect=fixed;strokeWidth=2;fillColor=#dae8fc;strokeColor=#6c8ebf;" vertex="1" parent="1">
          <mxGeometry x="360" y="310" width="40" height="40" as="geometry" />
        </mxCell>
        <mxCell id="Ofg8tvn4ISnts4zP7dnw-46" style="edgeStyle=orthogonalEdgeStyle;rounded=0;orthogonalLoop=1;jettySize=auto;html=1;exitX=1;exitY=0.5;exitDx=0;exitDy=0;endArrow=none;endFill=0;fillColor=#dae8fc;strokeColor=#6c8ebf;" edge="1" parent="1">
          <mxGeometry relative="1" as="geometry">
            <mxPoint x="520" y="331" as="sourcePoint" />
            <mxPoint x="600" y="331" as="targetPoint" />
          </mxGeometry>
        </mxCell>
        <mxCell id="Ofg8tvn4ISnts4zP7dnw-91" style="edgeStyle=orthogonalEdgeStyle;rounded=0;orthogonalLoop=1;jettySize=auto;html=1;exitX=0.5;exitY=1;exitDx=0;exitDy=0;entryX=0.5;entryY=0;entryDx=0;entryDy=0;endArrow=none;endFill=0;fillColor=#dae8fc;strokeColor=#6c8ebf;" edge="1" parent="1">
          <mxGeometry relative="1" as="geometry">
            <mxPoint x="500" y="351" as="sourcePoint" />
            <mxPoint x="500" y="421" as="targetPoint" />
          </mxGeometry>
        </mxCell>
        <mxCell id="Ofg8tvn4ISnts4zP7dnw-47" value="" style="ellipse;whiteSpace=wrap;html=1;aspect=fixed;strokeWidth=2;fillColor=#dae8fc;strokeColor=#6c8ebf;" vertex="1" parent="1">
          <mxGeometry x="480" y="310" width="40" height="40" as="geometry" />
        </mxCell>
        <mxCell id="Ofg8tvn4ISnts4zP7dnw-48" style="edgeStyle=orthogonalEdgeStyle;rounded=0;orthogonalLoop=1;jettySize=auto;html=1;exitX=1;exitY=0.5;exitDx=0;exitDy=0;entryX=0;entryY=0.5;entryDx=0;entryDy=0;endArrow=none;endFill=0;fillColor=#dae8fc;strokeColor=#6c8ebf;" edge="1" parent="1">
          <mxGeometry relative="1" as="geometry">
            <mxPoint x="640" y="331" as="sourcePoint" />
            <mxPoint x="240" y="331" as="targetPoint" />
            <Array as="points">
              <mxPoint x="660" y="331" />
              <mxPoint x="660" y="371" />
              <mxPoint x="220" y="371" />
              <mxPoint x="220" y="331" />
            </Array>
          </mxGeometry>
        </mxCell>
        <mxCell id="Ofg8tvn4ISnts4zP7dnw-90" style="edgeStyle=orthogonalEdgeStyle;rounded=0;orthogonalLoop=1;jettySize=auto;html=1;exitX=0.5;exitY=1;exitDx=0;exitDy=0;entryX=0.5;entryY=0;entryDx=0;entryDy=0;endArrow=none;endFill=0;fillColor=#dae8fc;strokeColor=#6c8ebf;" edge="1" parent="1">
          <mxGeometry relative="1" as="geometry">
            <mxPoint x="620" y="351" as="sourcePoint" />
            <mxPoint x="620" y="421" as="targetPoint" />
          </mxGeometry>
        </mxCell>
        <mxCell id="Ofg8tvn4ISnts4zP7dnw-49" value="" style="ellipse;whiteSpace=wrap;html=1;aspect=fixed;strokeWidth=2;fillColor=#dae8fc;strokeColor=#6c8ebf;" vertex="1" parent="1">
          <mxGeometry x="600" y="310" width="40" height="40" as="geometry" />
        </mxCell>
        <mxCell id="Ofg8tvn4ISnts4zP7dnw-50" style="rounded=0;orthogonalLoop=1;jettySize=auto;html=1;exitX=1;exitY=0.75;exitDx=0;exitDy=0;entryX=0;entryY=0;entryDx=0;entryDy=0;endArrow=none;endFill=0;fillColor=#d5e8d4;strokeColor=#82b366;" edge="1" source="Ofg8tvn4ISnts4zP7dnw-51" target="Ofg8tvn4ISnts4zP7dnw-47" parent="1">
          <mxGeometry relative="1" as="geometry" />
        </mxCell>
        <mxCell id="Ofg8tvn4ISnts4zP7dnw-51" value="" style="rounded=0;whiteSpace=wrap;html=1;strokeWidth=2;fillColor=#d5e8d4;strokeColor=#82b366;" vertex="1" parent="1">
          <mxGeometry x="430" y="270" width="20" height="20" as="geometry" />
        </mxCell>
        <mxCell id="Ofg8tvn4ISnts4zP7dnw-52" style="rounded=0;orthogonalLoop=1;jettySize=auto;html=1;exitX=0;exitY=0.75;exitDx=0;exitDy=0;entryX=1;entryY=0;entryDx=0;entryDy=0;endArrow=none;endFill=0;fillColor=#d5e8d4;strokeColor=#82b366;" edge="1" source="Ofg8tvn4ISnts4zP7dnw-54" target="Ofg8tvn4ISnts4zP7dnw-47" parent="1">
          <mxGeometry relative="1" as="geometry" />
        </mxCell>
        <mxCell id="Ofg8tvn4ISnts4zP7dnw-53" style="rounded=0;orthogonalLoop=1;jettySize=auto;html=1;exitX=1;exitY=0.75;exitDx=0;exitDy=0;entryX=0;entryY=0;entryDx=0;entryDy=0;endArrow=none;endFill=0;fillColor=#d5e8d4;strokeColor=#82b366;" edge="1" source="Ofg8tvn4ISnts4zP7dnw-54" target="Ofg8tvn4ISnts4zP7dnw-49" parent="1">
          <mxGeometry relative="1" as="geometry" />
        </mxCell>
        <mxCell id="Ofg8tvn4ISnts4zP7dnw-54" value="" style="rounded=0;whiteSpace=wrap;html=1;strokeWidth=2;fillColor=#d5e8d4;strokeColor=#82b366;" vertex="1" parent="1">
          <mxGeometry x="550" y="270" width="20" height="20" as="geometry" />
        </mxCell>
        <mxCell id="Ofg8tvn4ISnts4zP7dnw-55" style="rounded=0;orthogonalLoop=1;jettySize=auto;html=1;exitX=0;exitY=0.5;exitDx=0;exitDy=0;entryX=1;entryY=0;entryDx=0;entryDy=0;endArrow=none;endFill=0;fillColor=#d5e8d4;strokeColor=#82b366;" edge="1" source="Ofg8tvn4ISnts4zP7dnw-57" target="Ofg8tvn4ISnts4zP7dnw-49" parent="1">
          <mxGeometry relative="1" as="geometry" />
        </mxCell>
        <mxCell id="Ofg8tvn4ISnts4zP7dnw-56" style="edgeStyle=orthogonalEdgeStyle;rounded=0;orthogonalLoop=1;jettySize=auto;html=1;exitX=0.5;exitY=0;exitDx=0;exitDy=0;entryX=0.5;entryY=0;entryDx=0;entryDy=0;endArrow=none;endFill=0;fillColor=#d5e8d4;strokeColor=#82b366;" edge="1" source="Ofg8tvn4ISnts4zP7dnw-57" target="Ofg8tvn4ISnts4zP7dnw-43" parent="1">
          <mxGeometry relative="1" as="geometry" />
        </mxCell>
        <mxCell id="Ofg8tvn4ISnts4zP7dnw-57" value="" style="rounded=0;whiteSpace=wrap;html=1;strokeWidth=2;fillColor=#d5e8d4;strokeColor=#82b366;" vertex="1" parent="1">
          <mxGeometry x="670" y="270" width="20" height="20" as="geometry" />
        </mxCell>
        <mxCell id="Ofg8tvn4ISnts4zP7dnw-58" style="rounded=0;orthogonalLoop=1;jettySize=auto;html=1;exitX=0;exitY=0.75;exitDx=0;exitDy=0;entryX=1;entryY=0;entryDx=0;entryDy=0;endArrow=none;endFill=0;fillColor=#d5e8d4;strokeColor=#82b366;" edge="1" source="Ofg8tvn4ISnts4zP7dnw-51" target="Ofg8tvn4ISnts4zP7dnw-45" parent="1">
          <mxGeometry relative="1" as="geometry" />
        </mxCell>
        <mxCell id="Ofg8tvn4ISnts4zP7dnw-62" style="edgeStyle=orthogonalEdgeStyle;rounded=0;orthogonalLoop=1;jettySize=auto;html=1;exitX=1;exitY=0.5;exitDx=0;exitDy=0;endArrow=none;endFill=0;fillColor=#dae8fc;strokeColor=#6c8ebf;" edge="1" parent="1">
          <mxGeometry relative="1" as="geometry">
            <mxPoint x="280" y="441" as="sourcePoint" />
            <mxPoint x="360" y="441" as="targetPoint" />
          </mxGeometry>
        </mxCell>
        <mxCell id="Ofg8tvn4ISnts4zP7dnw-63" value="" style="ellipse;whiteSpace=wrap;html=1;aspect=fixed;strokeWidth=2;fillColor=#dae8fc;strokeColor=#6c8ebf;" vertex="1" parent="1">
          <mxGeometry x="240" y="420" width="40" height="40" as="geometry" />
        </mxCell>
        <mxCell id="Ofg8tvn4ISnts4zP7dnw-64" style="edgeStyle=orthogonalEdgeStyle;rounded=0;orthogonalLoop=1;jettySize=auto;html=1;exitX=1;exitY=0.5;exitDx=0;exitDy=0;endArrow=none;endFill=0;fillColor=#dae8fc;strokeColor=#6c8ebf;" edge="1" parent="1">
          <mxGeometry relative="1" as="geometry">
            <mxPoint x="400" y="441" as="sourcePoint" />
            <mxPoint x="480" y="441" as="targetPoint" />
          </mxGeometry>
        </mxCell>
        <mxCell id="Ofg8tvn4ISnts4zP7dnw-65" value="" style="ellipse;whiteSpace=wrap;html=1;aspect=fixed;strokeWidth=2;fillColor=#dae8fc;strokeColor=#6c8ebf;" vertex="1" parent="1">
          <mxGeometry x="360" y="420" width="40" height="40" as="geometry" />
        </mxCell>
        <mxCell id="Ofg8tvn4ISnts4zP7dnw-66" style="edgeStyle=orthogonalEdgeStyle;rounded=0;orthogonalLoop=1;jettySize=auto;html=1;exitX=1;exitY=0.5;exitDx=0;exitDy=0;endArrow=none;endFill=0;fillColor=#dae8fc;strokeColor=#6c8ebf;" edge="1" parent="1">
          <mxGeometry relative="1" as="geometry">
            <mxPoint x="520" y="441" as="sourcePoint" />
            <mxPoint x="600" y="441" as="targetPoint" />
          </mxGeometry>
        </mxCell>
        <mxCell id="Ofg8tvn4ISnts4zP7dnw-67" value="" style="ellipse;whiteSpace=wrap;html=1;aspect=fixed;strokeWidth=2;fillColor=#dae8fc;strokeColor=#6c8ebf;" vertex="1" parent="1">
          <mxGeometry x="480" y="420" width="40" height="40" as="geometry" />
        </mxCell>
        <mxCell id="Ofg8tvn4ISnts4zP7dnw-68" style="edgeStyle=orthogonalEdgeStyle;rounded=0;orthogonalLoop=1;jettySize=auto;html=1;exitX=1;exitY=0.5;exitDx=0;exitDy=0;entryX=0;entryY=0.5;entryDx=0;entryDy=0;endArrow=none;endFill=0;fillColor=#dae8fc;strokeColor=#6c8ebf;" edge="1" source="Ofg8tvn4ISnts4zP7dnw-69" target="Ofg8tvn4ISnts4zP7dnw-63" parent="1">
          <mxGeometry relative="1" as="geometry">
            <Array as="points">
              <mxPoint x="660" y="440" />
              <mxPoint x="660" y="480" />
              <mxPoint x="220" y="480" />
              <mxPoint x="220" y="440" />
            </Array>
          </mxGeometry>
        </mxCell>
        <mxCell id="Ofg8tvn4ISnts4zP7dnw-69" value="" style="ellipse;whiteSpace=wrap;html=1;aspect=fixed;strokeWidth=2;fillColor=#dae8fc;strokeColor=#6c8ebf;" vertex="1" parent="1">
          <mxGeometry x="600" y="420" width="40" height="40" as="geometry" />
        </mxCell>
        <mxCell id="Ofg8tvn4ISnts4zP7dnw-79" style="rounded=0;orthogonalLoop=1;jettySize=auto;html=1;exitX=1;exitY=1;exitDx=0;exitDy=0;entryX=0;entryY=0.25;entryDx=0;entryDy=0;endArrow=none;endFill=0;fillColor=#d5e8d4;strokeColor=#82b366;" edge="1" parent="1" source="Ofg8tvn4ISnts4zP7dnw-2" target="Ofg8tvn4ISnts4zP7dnw-41">
          <mxGeometry relative="1" as="geometry">
            <mxPoint x="325" y="300" as="sourcePoint" />
            <mxPoint x="284" y="326" as="targetPoint" />
          </mxGeometry>
        </mxCell>
        <mxCell id="Ofg8tvn4ISnts4zP7dnw-80" style="rounded=0;orthogonalLoop=1;jettySize=auto;html=1;exitX=0;exitY=1;exitDx=0;exitDy=0;entryX=1;entryY=0.25;entryDx=0;entryDy=0;endArrow=none;endFill=0;fillColor=#d5e8d4;strokeColor=#82b366;" edge="1" parent="1" source="Ofg8tvn4ISnts4zP7dnw-3" target="Ofg8tvn4ISnts4zP7dnw-41">
          <mxGeometry relative="1" as="geometry">
            <mxPoint x="284" y="244" as="sourcePoint" />
            <mxPoint x="320" y="290" as="targetPoint" />
          </mxGeometry>
        </mxCell>
        <mxCell id="Ofg8tvn4ISnts4zP7dnw-81" style="rounded=0;orthogonalLoop=1;jettySize=auto;html=1;exitX=0;exitY=0.25;exitDx=0;exitDy=0;entryX=1;entryY=1;entryDx=0;entryDy=0;endArrow=none;endFill=0;fillColor=#d5e8d4;strokeColor=#82b366;" edge="1" parent="1" source="Ofg8tvn4ISnts4zP7dnw-51" target="Ofg8tvn4ISnts4zP7dnw-3">
          <mxGeometry relative="1" as="geometry">
            <mxPoint x="440" y="295" as="sourcePoint" />
            <mxPoint x="404" y="326" as="targetPoint" />
          </mxGeometry>
        </mxCell>
        <mxCell id="Ofg8tvn4ISnts4zP7dnw-82" style="rounded=0;orthogonalLoop=1;jettySize=auto;html=1;exitX=1;exitY=0.25;exitDx=0;exitDy=0;entryX=0;entryY=1;entryDx=0;entryDy=0;endArrow=none;endFill=0;fillColor=#d5e8d4;strokeColor=#82b366;" edge="1" parent="1" source="Ofg8tvn4ISnts4zP7dnw-51" target="Ofg8tvn4ISnts4zP7dnw-4">
          <mxGeometry relative="1" as="geometry">
            <mxPoint x="460" y="295" as="sourcePoint" />
            <mxPoint x="496" y="326" as="targetPoint" />
          </mxGeometry>
        </mxCell>
        <mxCell id="Ofg8tvn4ISnts4zP7dnw-83" style="rounded=0;orthogonalLoop=1;jettySize=auto;html=1;exitX=0;exitY=0.25;exitDx=0;exitDy=0;entryX=1;entryY=1;entryDx=0;entryDy=0;endArrow=none;endFill=0;fillColor=#d5e8d4;strokeColor=#82b366;" edge="1" parent="1" source="Ofg8tvn4ISnts4zP7dnw-54" target="Ofg8tvn4ISnts4zP7dnw-4">
          <mxGeometry relative="1" as="geometry">
            <mxPoint x="560" y="295" as="sourcePoint" />
            <mxPoint x="524" y="326" as="targetPoint" />
          </mxGeometry>
        </mxCell>
        <mxCell id="Ofg8tvn4ISnts4zP7dnw-85" style="rounded=0;orthogonalLoop=1;jettySize=auto;html=1;exitX=0;exitY=1;exitDx=0;exitDy=0;entryX=1;entryY=0.25;entryDx=0;entryDy=0;endArrow=none;endFill=0;fillColor=#d5e8d4;strokeColor=#82b366;" edge="1" parent="1" source="Ofg8tvn4ISnts4zP7dnw-5" target="Ofg8tvn4ISnts4zP7dnw-54">
          <mxGeometry relative="1" as="geometry">
            <mxPoint x="580" y="295" as="sourcePoint" />
            <mxPoint x="616" y="326" as="targetPoint" />
          </mxGeometry>
        </mxCell>
        <mxCell id="Ofg8tvn4ISnts4zP7dnw-134" style="edgeStyle=orthogonalEdgeStyle;rounded=0;orthogonalLoop=1;jettySize=auto;html=1;exitX=0;exitY=1;exitDx=0;exitDy=0;entryX=0;entryY=0;entryDx=0;entryDy=0;endArrow=none;endFill=0;fillColor=#dae8fc;strokeColor=#6c8ebf;" edge="1" parent="1">
          <mxGeometry relative="1" as="geometry">
            <mxPoint x="246" y="344" as="sourcePoint" />
            <mxPoint x="246" y="426" as="targetPoint" />
          </mxGeometry>
        </mxCell>
        <mxCell id="Ofg8tvn4ISnts4zP7dnw-135" style="edgeStyle=orthogonalEdgeStyle;rounded=0;orthogonalLoop=1;jettySize=auto;html=1;exitX=0.5;exitY=1;exitDx=0;exitDy=0;endArrow=none;endFill=0;fillColor=#dae8fc;strokeColor=#6c8ebf;" edge="1" parent="1">
          <mxGeometry relative="1" as="geometry">
            <mxPoint x="380" y="350" as="sourcePoint" />
            <mxPoint x="380" y="420" as="targetPoint" />
          </mxGeometry>
        </mxCell>
        <mxCell id="Ofg8tvn4ISnts4zP7dnw-136" style="edgeStyle=orthogonalEdgeStyle;rounded=0;orthogonalLoop=1;jettySize=auto;html=1;exitX=0.5;exitY=1;exitDx=0;exitDy=0;entryX=0.5;entryY=0;entryDx=0;entryDy=0;endArrow=none;endFill=0;fillColor=#dae8fc;strokeColor=#6c8ebf;" edge="1" parent="1">
          <mxGeometry relative="1" as="geometry">
            <mxPoint x="500" y="350" as="sourcePoint" />
            <mxPoint x="500" y="420" as="targetPoint" />
          </mxGeometry>
        </mxCell>
        <mxCell id="Ofg8tvn4ISnts4zP7dnw-137" style="edgeStyle=orthogonalEdgeStyle;rounded=0;orthogonalLoop=1;jettySize=auto;html=1;exitX=0.5;exitY=1;exitDx=0;exitDy=0;entryX=0.5;entryY=0;entryDx=0;entryDy=0;endArrow=none;endFill=0;fillColor=#dae8fc;strokeColor=#6c8ebf;" edge="1" parent="1">
          <mxGeometry relative="1" as="geometry">
            <mxPoint x="620" y="350" as="sourcePoint" />
            <mxPoint x="620" y="420" as="targetPoint" />
          </mxGeometry>
        </mxCell>
        <mxCell id="Ofg8tvn4ISnts4zP7dnw-138" style="rounded=0;orthogonalLoop=1;jettySize=auto;html=1;exitX=1;exitY=0.75;exitDx=0;exitDy=0;entryX=0;entryY=0;entryDx=0;entryDy=0;endArrow=none;endFill=0;fillColor=#d5e8d4;strokeColor=#82b366;" edge="1" source="Ofg8tvn4ISnts4zP7dnw-140" parent="1">
          <mxGeometry relative="1" as="geometry">
            <mxPoint x="366" y="426" as="targetPoint" />
          </mxGeometry>
        </mxCell>
        <mxCell id="Ofg8tvn4ISnts4zP7dnw-139" style="rounded=0;orthogonalLoop=1;jettySize=auto;html=1;exitX=0;exitY=0.75;exitDx=0;exitDy=0;entryX=1;entryY=0;entryDx=0;entryDy=0;endArrow=none;endFill=0;fillColor=#d5e8d4;strokeColor=#82b366;" edge="1" source="Ofg8tvn4ISnts4zP7dnw-140" parent="1">
          <mxGeometry relative="1" as="geometry">
            <mxPoint x="274" y="426" as="targetPoint" />
          </mxGeometry>
        </mxCell>
        <mxCell id="Ofg8tvn4ISnts4zP7dnw-140" value="" style="rounded=0;whiteSpace=wrap;html=1;strokeWidth=2;fillColor=#d5e8d4;strokeColor=#82b366;" vertex="1" parent="1">
          <mxGeometry x="310" y="380" width="20" height="20" as="geometry" />
        </mxCell>
        <mxCell id="Ofg8tvn4ISnts4zP7dnw-141" style="rounded=0;orthogonalLoop=1;jettySize=auto;html=1;exitX=1;exitY=0.75;exitDx=0;exitDy=0;entryX=0;entryY=0;entryDx=0;entryDy=0;endArrow=none;endFill=0;fillColor=#d5e8d4;strokeColor=#82b366;" edge="1" source="Ofg8tvn4ISnts4zP7dnw-142" parent="1">
          <mxGeometry relative="1" as="geometry">
            <mxPoint x="486" y="426" as="targetPoint" />
          </mxGeometry>
        </mxCell>
        <mxCell id="Ofg8tvn4ISnts4zP7dnw-142" value="" style="rounded=0;whiteSpace=wrap;html=1;strokeWidth=2;fillColor=#d5e8d4;strokeColor=#82b366;" vertex="1" parent="1">
          <mxGeometry x="430" y="380" width="20" height="20" as="geometry" />
        </mxCell>
        <mxCell id="Ofg8tvn4ISnts4zP7dnw-143" style="rounded=0;orthogonalLoop=1;jettySize=auto;html=1;exitX=0;exitY=0.75;exitDx=0;exitDy=0;entryX=1;entryY=0;entryDx=0;entryDy=0;endArrow=none;endFill=0;fillColor=#d5e8d4;strokeColor=#82b366;" edge="1" source="Ofg8tvn4ISnts4zP7dnw-145" parent="1">
          <mxGeometry relative="1" as="geometry">
            <mxPoint x="514" y="426" as="targetPoint" />
          </mxGeometry>
        </mxCell>
        <mxCell id="Ofg8tvn4ISnts4zP7dnw-144" style="rounded=0;orthogonalLoop=1;jettySize=auto;html=1;exitX=1;exitY=0.75;exitDx=0;exitDy=0;entryX=0;entryY=0;entryDx=0;entryDy=0;endArrow=none;endFill=0;fillColor=#d5e8d4;strokeColor=#82b366;" edge="1" source="Ofg8tvn4ISnts4zP7dnw-145" parent="1">
          <mxGeometry relative="1" as="geometry">
            <mxPoint x="606" y="426" as="targetPoint" />
          </mxGeometry>
        </mxCell>
        <mxCell id="Ofg8tvn4ISnts4zP7dnw-145" value="" style="rounded=0;whiteSpace=wrap;html=1;strokeWidth=2;fillColor=#d5e8d4;strokeColor=#82b366;" vertex="1" parent="1">
          <mxGeometry x="550" y="380" width="20" height="20" as="geometry" />
        </mxCell>
        <mxCell id="Ofg8tvn4ISnts4zP7dnw-146" style="rounded=0;orthogonalLoop=1;jettySize=auto;html=1;exitX=0;exitY=0.5;exitDx=0;exitDy=0;entryX=1;entryY=0;entryDx=0;entryDy=0;endArrow=none;endFill=0;fillColor=#d5e8d4;strokeColor=#82b366;" edge="1" source="Ofg8tvn4ISnts4zP7dnw-148" parent="1">
          <mxGeometry relative="1" as="geometry">
            <mxPoint x="634" y="426" as="targetPoint" />
          </mxGeometry>
        </mxCell>
        <mxCell id="Ofg8tvn4ISnts4zP7dnw-147" style="edgeStyle=orthogonalEdgeStyle;rounded=0;orthogonalLoop=1;jettySize=auto;html=1;exitX=0.5;exitY=0;exitDx=0;exitDy=0;entryX=0.5;entryY=0;entryDx=0;entryDy=0;endArrow=none;endFill=0;fillColor=#d5e8d4;strokeColor=#82b366;" edge="1" source="Ofg8tvn4ISnts4zP7dnw-148" parent="1">
          <mxGeometry relative="1" as="geometry">
            <mxPoint x="260" y="420" as="targetPoint" />
          </mxGeometry>
        </mxCell>
        <mxCell id="Ofg8tvn4ISnts4zP7dnw-148" value="" style="rounded=0;whiteSpace=wrap;html=1;strokeWidth=2;fillColor=#d5e8d4;strokeColor=#82b366;" vertex="1" parent="1">
          <mxGeometry x="670" y="380" width="20" height="20" as="geometry" />
        </mxCell>
        <mxCell id="Ofg8tvn4ISnts4zP7dnw-149" style="rounded=0;orthogonalLoop=1;jettySize=auto;html=1;exitX=0;exitY=0.75;exitDx=0;exitDy=0;entryX=1;entryY=0;entryDx=0;entryDy=0;endArrow=none;endFill=0;fillColor=#d5e8d4;strokeColor=#82b366;" edge="1" source="Ofg8tvn4ISnts4zP7dnw-142" parent="1">
          <mxGeometry relative="1" as="geometry">
            <mxPoint x="394" y="426" as="targetPoint" />
          </mxGeometry>
        </mxCell>
        <mxCell id="Ofg8tvn4ISnts4zP7dnw-150" style="rounded=0;orthogonalLoop=1;jettySize=auto;html=1;exitX=1;exitY=1;exitDx=0;exitDy=0;entryX=0;entryY=0.25;entryDx=0;entryDy=0;endArrow=none;endFill=0;fillColor=#d5e8d4;strokeColor=#82b366;" edge="1" target="Ofg8tvn4ISnts4zP7dnw-140" parent="1">
          <mxGeometry relative="1" as="geometry">
            <mxPoint x="274" y="344" as="sourcePoint" />
            <mxPoint x="284" y="436" as="targetPoint" />
          </mxGeometry>
        </mxCell>
        <mxCell id="Ofg8tvn4ISnts4zP7dnw-151" style="rounded=0;orthogonalLoop=1;jettySize=auto;html=1;exitX=0;exitY=1;exitDx=0;exitDy=0;entryX=1;entryY=0.25;entryDx=0;entryDy=0;endArrow=none;endFill=0;fillColor=#d5e8d4;strokeColor=#82b366;" edge="1" target="Ofg8tvn4ISnts4zP7dnw-140" parent="1">
          <mxGeometry relative="1" as="geometry">
            <mxPoint x="366" y="344" as="sourcePoint" />
            <mxPoint x="320" y="400" as="targetPoint" />
          </mxGeometry>
        </mxCell>
        <mxCell id="Ofg8tvn4ISnts4zP7dnw-152" style="rounded=0;orthogonalLoop=1;jettySize=auto;html=1;exitX=0;exitY=0.25;exitDx=0;exitDy=0;entryX=1;entryY=1;entryDx=0;entryDy=0;endArrow=none;endFill=0;fillColor=#d5e8d4;strokeColor=#82b366;" edge="1" source="Ofg8tvn4ISnts4zP7dnw-142" parent="1">
          <mxGeometry relative="1" as="geometry">
            <mxPoint x="440" y="405" as="sourcePoint" />
            <mxPoint x="394" y="344" as="targetPoint" />
          </mxGeometry>
        </mxCell>
        <mxCell id="Ofg8tvn4ISnts4zP7dnw-153" style="rounded=0;orthogonalLoop=1;jettySize=auto;html=1;exitX=1;exitY=0.25;exitDx=0;exitDy=0;entryX=0;entryY=1;entryDx=0;entryDy=0;endArrow=none;endFill=0;fillColor=#d5e8d4;strokeColor=#82b366;" edge="1" source="Ofg8tvn4ISnts4zP7dnw-142" parent="1">
          <mxGeometry relative="1" as="geometry">
            <mxPoint x="460" y="405" as="sourcePoint" />
            <mxPoint x="486" y="344" as="targetPoint" />
          </mxGeometry>
        </mxCell>
        <mxCell id="Ofg8tvn4ISnts4zP7dnw-154" style="rounded=0;orthogonalLoop=1;jettySize=auto;html=1;exitX=0;exitY=0.25;exitDx=0;exitDy=0;entryX=1;entryY=1;entryDx=0;entryDy=0;endArrow=none;endFill=0;fillColor=#d5e8d4;strokeColor=#82b366;" edge="1" source="Ofg8tvn4ISnts4zP7dnw-145" parent="1">
          <mxGeometry relative="1" as="geometry">
            <mxPoint x="560" y="405" as="sourcePoint" />
            <mxPoint x="514" y="344" as="targetPoint" />
          </mxGeometry>
        </mxCell>
        <mxCell id="Ofg8tvn4ISnts4zP7dnw-155" style="rounded=0;orthogonalLoop=1;jettySize=auto;html=1;exitX=0;exitY=1;exitDx=0;exitDy=0;entryX=1;entryY=0.25;entryDx=0;entryDy=0;endArrow=none;endFill=0;fillColor=#d5e8d4;strokeColor=#82b366;" edge="1" target="Ofg8tvn4ISnts4zP7dnw-145" parent="1">
          <mxGeometry relative="1" as="geometry">
            <mxPoint x="606" y="344" as="sourcePoint" />
            <mxPoint x="616" y="436" as="targetPoint" />
          </mxGeometry>
        </mxCell>
        <mxCell id="Ofg8tvn4ISnts4zP7dnw-156" style="rounded=0;orthogonalLoop=1;jettySize=auto;html=1;exitX=1;exitY=0.5;exitDx=0;exitDy=0;endArrow=none;endFill=0;fillColor=#d5e8d4;strokeColor=#82b366;" edge="1" source="Ofg8tvn4ISnts4zP7dnw-158" parent="1" target="Ofg8tvn4ISnts4zP7dnw-65">
          <mxGeometry relative="1" as="geometry">
            <mxPoint x="366" y="546" as="targetPoint" />
          </mxGeometry>
        </mxCell>
        <mxCell id="Ofg8tvn4ISnts4zP7dnw-157" style="rounded=0;orthogonalLoop=1;jettySize=auto;html=1;exitX=0;exitY=0.5;exitDx=0;exitDy=0;entryX=1;entryY=1;entryDx=0;entryDy=0;endArrow=none;endFill=0;fillColor=#d5e8d4;strokeColor=#82b366;" edge="1" source="Ofg8tvn4ISnts4zP7dnw-158" parent="1" target="Ofg8tvn4ISnts4zP7dnw-63">
          <mxGeometry relative="1" as="geometry">
            <mxPoint x="274" y="546" as="targetPoint" />
          </mxGeometry>
        </mxCell>
        <mxCell id="Ofg8tvn4ISnts4zP7dnw-158" value="" style="rounded=0;whiteSpace=wrap;html=1;strokeWidth=2;fillColor=#d5e8d4;strokeColor=#82b366;" vertex="1" parent="1">
          <mxGeometry x="310" y="500" width="20" height="20" as="geometry" />
        </mxCell>
        <mxCell id="Ofg8tvn4ISnts4zP7dnw-159" style="rounded=0;orthogonalLoop=1;jettySize=auto;html=1;exitX=1;exitY=0.5;exitDx=0;exitDy=0;endArrow=none;endFill=0;fillColor=#d5e8d4;strokeColor=#82b366;" edge="1" source="Ofg8tvn4ISnts4zP7dnw-160" parent="1" target="Ofg8tvn4ISnts4zP7dnw-67">
          <mxGeometry relative="1" as="geometry">
            <mxPoint x="486" y="546" as="targetPoint" />
          </mxGeometry>
        </mxCell>
        <mxCell id="Ofg8tvn4ISnts4zP7dnw-160" value="" style="rounded=0;whiteSpace=wrap;html=1;strokeWidth=2;fillColor=#d5e8d4;strokeColor=#82b366;" vertex="1" parent="1">
          <mxGeometry x="430" y="500" width="20" height="20" as="geometry" />
        </mxCell>
        <mxCell id="Ofg8tvn4ISnts4zP7dnw-161" style="rounded=0;orthogonalLoop=1;jettySize=auto;html=1;exitX=0;exitY=0.5;exitDx=0;exitDy=0;entryX=1;entryY=1;entryDx=0;entryDy=0;endArrow=none;endFill=0;fillColor=#d5e8d4;strokeColor=#82b366;" edge="1" source="Ofg8tvn4ISnts4zP7dnw-163" parent="1" target="Ofg8tvn4ISnts4zP7dnw-67">
          <mxGeometry relative="1" as="geometry">
            <mxPoint x="514" y="546" as="targetPoint" />
          </mxGeometry>
        </mxCell>
        <mxCell id="Ofg8tvn4ISnts4zP7dnw-162" style="rounded=0;orthogonalLoop=1;jettySize=auto;html=1;exitX=1;exitY=0.5;exitDx=0;exitDy=0;entryX=0;entryY=1;entryDx=0;entryDy=0;endArrow=none;endFill=0;fillColor=#d5e8d4;strokeColor=#82b366;" edge="1" source="Ofg8tvn4ISnts4zP7dnw-163" parent="1" target="Ofg8tvn4ISnts4zP7dnw-69">
          <mxGeometry relative="1" as="geometry">
            <mxPoint x="606" y="546" as="targetPoint" />
          </mxGeometry>
        </mxCell>
        <mxCell id="Ofg8tvn4ISnts4zP7dnw-163" value="" style="rounded=0;whiteSpace=wrap;html=1;strokeWidth=2;fillColor=#d5e8d4;strokeColor=#82b366;" vertex="1" parent="1">
          <mxGeometry x="550" y="500" width="20" height="20" as="geometry" />
        </mxCell>
        <mxCell id="Ofg8tvn4ISnts4zP7dnw-164" style="rounded=0;orthogonalLoop=1;jettySize=auto;html=1;exitX=0;exitY=0.5;exitDx=0;exitDy=0;entryX=1;entryY=1;entryDx=0;entryDy=0;endArrow=none;endFill=0;fillColor=#d5e8d4;strokeColor=#82b366;" edge="1" source="Ofg8tvn4ISnts4zP7dnw-165" parent="1" target="Ofg8tvn4ISnts4zP7dnw-69">
          <mxGeometry relative="1" as="geometry">
            <mxPoint x="634" y="546" as="targetPoint" />
          </mxGeometry>
        </mxCell>
        <mxCell id="Ofg8tvn4ISnts4zP7dnw-168" style="edgeStyle=orthogonalEdgeStyle;rounded=0;orthogonalLoop=1;jettySize=auto;html=1;exitX=0.5;exitY=1;exitDx=0;exitDy=0;endArrow=none;endFill=0;fillColor=#d5e8d4;strokeColor=#82b366;" edge="1" parent="1" source="Ofg8tvn4ISnts4zP7dnw-165" target="Ofg8tvn4ISnts4zP7dnw-63">
          <mxGeometry relative="1" as="geometry" />
        </mxCell>
        <mxCell id="Ofg8tvn4ISnts4zP7dnw-165" value="" style="rounded=0;whiteSpace=wrap;html=1;strokeWidth=2;fillColor=#d5e8d4;strokeColor=#82b366;" vertex="1" parent="1">
          <mxGeometry x="670" y="500" width="20" height="20" as="geometry" />
        </mxCell>
        <mxCell id="Ofg8tvn4ISnts4zP7dnw-166" style="rounded=0;orthogonalLoop=1;jettySize=auto;html=1;exitX=0;exitY=0.5;exitDx=0;exitDy=0;entryX=1;entryY=1;entryDx=0;entryDy=0;endArrow=none;endFill=0;fillColor=#d5e8d4;strokeColor=#82b366;" edge="1" source="Ofg8tvn4ISnts4zP7dnw-160" parent="1" target="Ofg8tvn4ISnts4zP7dnw-65">
          <mxGeometry relative="1" as="geometry">
            <mxPoint x="394" y="546" as="targetPoint" />
          </mxGeometry>
        </mxCell>
      </root>
    </mxGraphModel>
  </diagram>
  <diagram id="dXrPO2ia1-W-u0hCc9rj" name="topology-chain">
    <mxGraphModel dx="795" dy="488" grid="1" gridSize="10" guides="1" tooltips="1" connect="1" arrows="1" fold="1" page="1" pageScale="1" pageWidth="850" pageHeight="1100" math="0" shadow="0">
      <root>
        <mxCell id="0" />
        <mxCell id="1" parent="0" />
        <mxCell id="e18yInnz5BvRkEtn8MFc-1" style="edgeStyle=orthogonalEdgeStyle;rounded=0;orthogonalLoop=1;jettySize=auto;html=1;exitX=1;exitY=0.5;exitDx=0;exitDy=0;endArrow=none;endFill=0;fillColor=#dae8fc;strokeColor=#6c8ebf;" edge="1" parent="1" source="e18yInnz5BvRkEtn8MFc-2" target="e18yInnz5BvRkEtn8MFc-4">
          <mxGeometry relative="1" as="geometry" />
        </mxCell>
        <mxCell id="e18yInnz5BvRkEtn8MFc-2" value="" style="ellipse;whiteSpace=wrap;html=1;aspect=fixed;strokeWidth=2;fillColor=#dae8fc;strokeColor=#6c8ebf;" vertex="1" parent="1">
          <mxGeometry x="240" y="200" width="40" height="40" as="geometry" />
        </mxCell>
        <mxCell id="e18yInnz5BvRkEtn8MFc-3" style="edgeStyle=orthogonalEdgeStyle;rounded=0;orthogonalLoop=1;jettySize=auto;html=1;exitX=1;exitY=0.5;exitDx=0;exitDy=0;endArrow=none;endFill=0;fillColor=#dae8fc;strokeColor=#6c8ebf;" edge="1" parent="1" source="e18yInnz5BvRkEtn8MFc-4" target="e18yInnz5BvRkEtn8MFc-6">
          <mxGeometry relative="1" as="geometry" />
        </mxCell>
        <mxCell id="e18yInnz5BvRkEtn8MFc-4" value="" style="ellipse;whiteSpace=wrap;html=1;aspect=fixed;strokeWidth=2;fillColor=#dae8fc;strokeColor=#6c8ebf;" vertex="1" parent="1">
          <mxGeometry x="360" y="200" width="40" height="40" as="geometry" />
        </mxCell>
        <mxCell id="e18yInnz5BvRkEtn8MFc-5" style="edgeStyle=orthogonalEdgeStyle;rounded=0;orthogonalLoop=1;jettySize=auto;html=1;exitX=1;exitY=0.5;exitDx=0;exitDy=0;endArrow=none;endFill=0;fillColor=#dae8fc;strokeColor=#6c8ebf;" edge="1" parent="1" source="e18yInnz5BvRkEtn8MFc-6" target="e18yInnz5BvRkEtn8MFc-7">
          <mxGeometry relative="1" as="geometry" />
        </mxCell>
        <mxCell id="e18yInnz5BvRkEtn8MFc-6" value="" style="ellipse;whiteSpace=wrap;html=1;aspect=fixed;strokeWidth=2;fillColor=#dae8fc;strokeColor=#6c8ebf;" vertex="1" parent="1">
          <mxGeometry x="480" y="200" width="40" height="40" as="geometry" />
        </mxCell>
        <mxCell id="e18yInnz5BvRkEtn8MFc-7" value="" style="ellipse;whiteSpace=wrap;html=1;aspect=fixed;strokeWidth=2;fillColor=#dae8fc;strokeColor=#6c8ebf;" vertex="1" parent="1">
          <mxGeometry x="600" y="200" width="40" height="40" as="geometry" />
        </mxCell>
        <mxCell id="e18yInnz5BvRkEtn8MFc-8" style="rounded=0;orthogonalLoop=1;jettySize=auto;html=1;exitX=0;exitY=0.5;exitDx=0;exitDy=0;entryX=1;entryY=0;entryDx=0;entryDy=0;endArrow=none;endFill=0;fillColor=#d5e8d4;strokeColor=#82b366;" edge="1" parent="1" source="e18yInnz5BvRkEtn8MFc-9" target="e18yInnz5BvRkEtn8MFc-7">
          <mxGeometry relative="1" as="geometry" />
        </mxCell>
        <mxCell id="e18yInnz5BvRkEtn8MFc-9" value="" style="rounded=0;whiteSpace=wrap;html=1;strokeWidth=2;fillColor=#d5e8d4;strokeColor=#82b366;" vertex="1" parent="1">
          <mxGeometry x="670" y="160" width="20" height="20" as="geometry" />
        </mxCell>
        <mxCell id="e18yInnz5BvRkEtn8MFc-10" value="" style="rounded=0;whiteSpace=wrap;html=1;strokeWidth=2;fillColor=#d5e8d4;strokeColor=#82b366;" vertex="1" parent="1">
          <mxGeometry x="190" y="160" width="20" height="20" as="geometry" />
        </mxCell>
        <mxCell id="e18yInnz5BvRkEtn8MFc-11" style="rounded=0;orthogonalLoop=1;jettySize=auto;html=1;exitX=1;exitY=0.5;exitDx=0;exitDy=0;entryX=0;entryY=0.5;entryDx=0;entryDy=0;endArrow=none;endFill=0;fillColor=#d5e8d4;strokeColor=#82b366;" edge="1" parent="1" source="e18yInnz5BvRkEtn8MFc-10" target="e18yInnz5BvRkEtn8MFc-2">
          <mxGeometry relative="1" as="geometry">
            <mxPoint x="680" y="180" as="sourcePoint" />
            <mxPoint x="644" y="216" as="targetPoint" />
          </mxGeometry>
        </mxCell>
      </root>
    </mxGraphModel>
  </diagram>
</mxfile>
